{
	"patcher" : 	{
		"fileversion" : 1,
		"rect" : [ 234.0, 169.0, 1106.0, 931.0 ],
		"bglocked" : 0,
		"defrect" : [ 234.0, 169.0, 1106.0, 931.0 ],
		"openrect" : [ 0.0, 0.0, 0.0, 0.0 ],
		"openinpresentation" : 0,
		"default_fontsize" : 12.0,
		"default_fontface" : 0,
		"default_fontname" : "Arial",
		"gridonopen" : 0,
		"gridsize" : [ 15.0, 15.0 ],
		"gridsnaponopen" : 0,
		"toolbarvisible" : 1,
		"boxanimatetime" : 200,
		"imprint" : 0,
		"enablehscroll" : 1,
		"enablevscroll" : 1,
		"devicewidth" : 0.0,
		"boxes" : [ 			{
				"box" : 				{
					"maxclass" : "newobj",
					"text" : "* 24",
					"fontsize" : 11.595187,
					"numinlets" : 2,
					"patching_rect" : [ 615.0, 311.0, 31.0, 20.0 ],
					"id" : "obj-3",
					"numoutlets" : 1,
					"fontname" : "Arial",
					"outlettype" : [ "int" ]
				}

			}
, 			{
				"box" : 				{
					"maxclass" : "newobj",
					"text" : "random 10",
					"fontsize" : 11.595187,
					"numinlets" : 2,
					"patching_rect" : [ 615.0, 278.0, 66.0, 20.0 ],
					"id" : "obj-4",
					"numoutlets" : 1,
					"fontname" : "Arial",
					"outlettype" : [ "int" ]
				}

			}
, 			{
				"box" : 				{
					"maxclass" : "newobj",
					"text" : "* 32",
					"fontsize" : 11.595187,
					"numinlets" : 2,
					"patching_rect" : [ 582.0, 278.0, 31.0, 20.0 ],
					"id" : "obj-5",
					"numoutlets" : 1,
					"fontname" : "Arial",
					"outlettype" : [ "int" ]
				}

			}
, 			{
				"box" : 				{
					"maxclass" : "newobj",
					"text" : "random 10",
					"fontsize" : 11.595187,
					"numinlets" : 2,
					"patching_rect" : [ 582.0, 246.0, 66.0, 20.0 ],
					"id" : "obj-6",
					"numoutlets" : 1,
					"fontname" : "Arial",
					"outlettype" : [ "int" ]
				}

			}
, 			{
				"box" : 				{
					"maxclass" : "newobj",
					"text" : "* 24",
					"fontsize" : 11.595187,
					"numinlets" : 2,
					"patching_rect" : [ 548.0, 246.0, 31.0, 20.0 ],
					"id" : "obj-7",
					"numoutlets" : 1,
					"fontname" : "Arial",
					"outlettype" : [ "int" ]
				}

			}
, 			{
				"box" : 				{
					"maxclass" : "newobj",
					"text" : "random 10",
					"fontsize" : 11.595187,
					"numinlets" : 2,
					"patching_rect" : [ 548.0, 215.0, 66.0, 20.0 ],
					"id" : "obj-8",
					"numoutlets" : 1,
					"fontname" : "Arial",
					"outlettype" : [ "int" ]
				}

			}
, 			{
				"box" : 				{
					"maxclass" : "newobj",
					"text" : "* 32",
					"fontsize" : 11.595187,
					"numinlets" : 2,
					"patching_rect" : [ 514.0, 215.0, 31.0, 20.0 ],
					"id" : "obj-9",
					"numoutlets" : 1,
					"fontname" : "Arial",
					"outlettype" : [ "int" ]
				}

			}
, 			{
				"box" : 				{
					"maxclass" : "newobj",
					"text" : "random 10",
					"fontsize" : 11.595187,
					"numinlets" : 2,
					"patching_rect" : [ 514.0, 182.0, 66.0, 20.0 ],
					"id" : "obj-10",
					"numoutlets" : 1,
					"fontname" : "Arial",
					"outlettype" : [ "int" ]
				}

			}
, 			{
				"box" : 				{
					"maxclass" : "newobj",
					"text" : "* 24",
					"fontsize" : 11.595187,
					"numinlets" : 2,
					"patching_rect" : [ 449.0, 311.0, 31.0, 20.0 ],
					"id" : "obj-11",
					"numoutlets" : 1,
					"fontname" : "Arial",
					"outlettype" : [ "int" ]
				}

			}
, 			{
				"box" : 				{
					"maxclass" : "newobj",
					"text" : "random 10",
					"fontsize" : 11.595187,
					"numinlets" : 2,
					"patching_rect" : [ 449.0, 278.0, 66.0, 20.0 ],
					"id" : "obj-12",
					"numoutlets" : 1,
					"fontname" : "Arial",
					"outlettype" : [ "int" ]
				}

			}
, 			{
				"box" : 				{
					"maxclass" : "newobj",
					"text" : "* 32",
					"fontsize" : 11.595187,
					"numinlets" : 2,
					"patching_rect" : [ 416.0, 278.0, 31.0, 20.0 ],
					"id" : "obj-13",
					"numoutlets" : 1,
					"fontname" : "Arial",
					"outlettype" : [ "int" ]
				}

			}
, 			{
				"box" : 				{
					"maxclass" : "newobj",
					"text" : "random 10",
					"fontsize" : 11.595187,
					"numinlets" : 2,
					"patching_rect" : [ 416.0, 246.0, 66.0, 20.0 ],
					"id" : "obj-14",
					"numoutlets" : 1,
					"fontname" : "Arial",
					"outlettype" : [ "int" ]
				}

			}
, 			{
				"box" : 				{
					"maxclass" : "newobj",
					"text" : "* 24",
					"fontsize" : 11.595187,
					"numinlets" : 2,
					"patching_rect" : [ 383.0, 246.0, 31.0, 20.0 ],
					"id" : "obj-15",
					"numoutlets" : 1,
					"fontname" : "Arial",
					"outlettype" : [ "int" ]
				}

			}
, 			{
				"box" : 				{
					"maxclass" : "newobj",
					"text" : "random 10",
					"fontsize" : 11.595187,
					"numinlets" : 2,
					"patching_rect" : [ 383.0, 215.0, 66.0, 20.0 ],
					"id" : "obj-16",
					"numoutlets" : 1,
					"fontname" : "Arial",
					"outlettype" : [ "int" ]
				}

			}
, 			{
				"box" : 				{
					"maxclass" : "newobj",
					"text" : "* 32",
					"fontsize" : 11.595187,
					"numinlets" : 2,
					"patching_rect" : [ 349.0, 215.0, 31.0, 20.0 ],
					"id" : "obj-17",
					"numoutlets" : 1,
					"fontname" : "Arial",
					"outlettype" : [ "int" ]
				}

			}
, 			{
				"box" : 				{
					"maxclass" : "newobj",
					"text" : "prepend framepoly",
					"fontsize" : 11.595187,
					"numinlets" : 1,
					"patching_rect" : [ 348.0, 386.0, 108.0, 20.0 ],
					"id" : "obj-21",
					"numoutlets" : 1,
					"fontname" : "Arial",
					"outlettype" : [ "" ]
				}

			}
, 			{
				"box" : 				{
					"maxclass" : "newobj",
					"text" : "pack 0 0 0 0 0 0 0 0 0 0 0",
					"fontsize" : 11.595187,
					"numinlets" : 11,
					"patching_rect" : [ 348.0, 356.0, 154.0, 20.0 ],
					"id" : "obj-22",
					"numoutlets" : 1,
					"fontname" : "Arial",
					"outlettype" : [ "" ]
				}

			}
, 			{
				"box" : 				{
					"maxclass" : "newobj",
					"text" : "random 10",
					"fontsize" : 11.595187,
					"numinlets" : 2,
					"patching_rect" : [ 349.0, 182.0, 66.0, 20.0 ],
					"id" : "obj-23",
					"numoutlets" : 1,
					"fontname" : "Arial",
					"outlettype" : [ "int" ]
				}

			}
, 			{
				"box" : 				{
					"maxclass" : "toggle",
					"numinlets" : 1,
					"patching_rect" : [ 373.0, 116.0, 20.0, 20.0 ],
					"id" : "obj-24",
					"numoutlets" : 1,
					"outlettype" : [ "int" ]
				}

			}
, 			{
				"box" : 				{
					"maxclass" : "newobj",
					"text" : "metro 50",
					"fontsize" : 11.595187,
					"numinlets" : 2,
					"patching_rect" : [ 373.0, 143.0, 63.0, 20.0 ],
					"id" : "obj-25",
					"numoutlets" : 1,
					"fontname" : "Arial",
					"outlettype" : [ "bang" ]
				}

			}
, 			{
				"box" : 				{
					"maxclass" : "comment",
					"text" : "3",
					"fontsize" : 11.595187,
					"numinlets" : 1,
					"patching_rect" : [ 444.0, 491.0, 18.0, 20.0 ],
					"id" : "obj-147",
					"numoutlets" : 0,
					"fontname" : "Arial"
				}

			}
, 			{
				"box" : 				{
					"maxclass" : "newobj",
					"text" : "prepend frgb",
					"fontsize" : 11.595187,
					"numinlets" : 1,
					"patching_rect" : [ 759.0, 616.0, 76.0, 20.0 ],
					"id" : "obj-105",
					"numoutlets" : 1,
					"fontname" : "Arial",
					"outlettype" : [ "" ]
				}

			}
, 			{
				"box" : 				{
					"maxclass" : "newobj",
					"text" : "pack 0 0 0",
					"fontsize" : 11.595187,
					"numinlets" : 3,
					"patching_rect" : [ 759.0, 586.0, 64.0, 20.0 ],
					"id" : "obj-104",
					"numoutlets" : 1,
					"fontname" : "Arial",
					"outlettype" : [ "" ]
				}

			}
, 			{
				"box" : 				{
					"maxclass" : "newobj",
					"text" : "* 24",
					"fontsize" : 11.595187,
					"numinlets" : 2,
					"patching_rect" : [ 706.0, 686.0, 31.0, 20.0 ],
					"id" : "obj-100",
					"numoutlets" : 1,
					"fontname" : "Arial",
					"outlettype" : [ "int" ]
				}

			}
, 			{
				"box" : 				{
					"maxclass" : "newobj",
					"text" : "drunk 10 2",
					"fontsize" : 11.595187,
					"numinlets" : 3,
					"patching_rect" : [ 706.0, 653.0, 65.0, 20.0 ],
					"id" : "obj-101",
					"numoutlets" : 1,
					"fontname" : "Arial",
					"outlettype" : [ "int" ]
				}

			}
, 			{
				"box" : 				{
					"maxclass" : "newobj",
					"text" : "* 32",
					"fontsize" : 11.595187,
					"numinlets" : 2,
					"patching_rect" : [ 673.0, 653.0, 31.0, 20.0 ],
					"id" : "obj-102",
					"numoutlets" : 1,
					"fontname" : "Arial",
					"outlettype" : [ "int" ]
				}

			}
, 			{
				"box" : 				{
					"maxclass" : "newobj",
					"text" : "drunk 10 2",
					"fontsize" : 11.595187,
					"numinlets" : 3,
					"patching_rect" : [ 673.0, 621.0, 65.0, 20.0 ],
					"id" : "obj-103",
					"numoutlets" : 1,
					"fontname" : "Arial",
					"outlettype" : [ "int" ]
				}

			}
, 			{
				"box" : 				{
					"maxclass" : "newobj",
					"text" : "* 24",
					"fontsize" : 11.595187,
					"numinlets" : 2,
					"patching_rect" : [ 639.0, 621.0, 31.0, 20.0 ],
					"id" : "obj-96",
					"numoutlets" : 1,
					"fontname" : "Arial",
					"outlettype" : [ "int" ]
				}

			}
, 			{
				"box" : 				{
					"maxclass" : "newobj",
					"text" : "drunk 10 2",
					"fontsize" : 11.595187,
					"numinlets" : 3,
					"patching_rect" : [ 639.0, 590.0, 65.0, 20.0 ],
					"id" : "obj-97",
					"numoutlets" : 1,
					"fontname" : "Arial",
					"outlettype" : [ "int" ]
				}

			}
, 			{
				"box" : 				{
					"maxclass" : "newobj",
					"text" : "* 32",
					"fontsize" : 11.595187,
					"numinlets" : 2,
					"patching_rect" : [ 605.0, 590.0, 31.0, 20.0 ],
					"id" : "obj-98",
					"numoutlets" : 1,
					"fontname" : "Arial",
					"outlettype" : [ "int" ]
				}

			}
, 			{
				"box" : 				{
					"maxclass" : "newobj",
					"text" : "drunk 10 2",
					"fontsize" : 11.595187,
					"numinlets" : 3,
					"patching_rect" : [ 605.0, 557.0, 65.0, 20.0 ],
					"id" : "obj-99",
					"numoutlets" : 1,
					"fontname" : "Arial",
					"outlettype" : [ "int" ]
				}

			}
, 			{
				"box" : 				{
					"maxclass" : "newobj",
					"text" : "* 24",
					"fontsize" : 11.595187,
					"numinlets" : 2,
					"patching_rect" : [ 540.0, 686.0, 31.0, 20.0 ],
					"id" : "obj-92",
					"numoutlets" : 1,
					"fontname" : "Arial",
					"outlettype" : [ "int" ]
				}

			}
, 			{
				"box" : 				{
					"maxclass" : "newobj",
					"text" : "drunk 10 2",
					"fontsize" : 11.595187,
					"numinlets" : 3,
					"patching_rect" : [ 540.0, 653.0, 65.0, 20.0 ],
					"id" : "obj-93",
					"numoutlets" : 1,
					"fontname" : "Arial",
					"outlettype" : [ "int" ]
				}

			}
, 			{
				"box" : 				{
					"maxclass" : "newobj",
					"text" : "* 32",
					"fontsize" : 11.595187,
					"numinlets" : 2,
					"patching_rect" : [ 507.0, 653.0, 31.0, 20.0 ],
					"id" : "obj-94",
					"numoutlets" : 1,
					"fontname" : "Arial",
					"outlettype" : [ "int" ]
				}

			}
, 			{
				"box" : 				{
					"maxclass" : "newobj",
					"text" : "drunk 10 2",
					"fontsize" : 11.595187,
					"numinlets" : 3,
					"patching_rect" : [ 507.0, 621.0, 65.0, 20.0 ],
					"id" : "obj-95",
					"numoutlets" : 1,
					"fontname" : "Arial",
					"outlettype" : [ "int" ]
				}

			}
, 			{
				"box" : 				{
					"maxclass" : "newobj",
					"text" : "* 24",
					"fontsize" : 11.595187,
					"numinlets" : 2,
					"patching_rect" : [ 474.0, 621.0, 31.0, 20.0 ],
					"id" : "obj-90",
					"numoutlets" : 1,
					"fontname" : "Arial",
					"outlettype" : [ "int" ]
				}

			}
, 			{
				"box" : 				{
					"maxclass" : "newobj",
					"text" : "drunk 10 2",
					"fontsize" : 11.595187,
					"numinlets" : 3,
					"patching_rect" : [ 474.0, 590.0, 65.0, 20.0 ],
					"id" : "obj-91",
					"numoutlets" : 1,
					"fontname" : "Arial",
					"outlettype" : [ "int" ]
				}

			}
, 			{
				"box" : 				{
					"maxclass" : "newobj",
					"text" : "* 32",
					"fontsize" : 11.595187,
					"numinlets" : 2,
					"patching_rect" : [ 440.0, 590.0, 31.0, 20.0 ],
					"id" : "obj-89",
					"numoutlets" : 1,
					"fontname" : "Arial",
					"outlettype" : [ "int" ]
				}

			}
, 			{
				"box" : 				{
					"maxclass" : "newobj",
					"text" : "drunk 255 15",
					"fontsize" : 11.595187,
					"numinlets" : 3,
					"patching_rect" : [ 910.0, 553.0, 78.0, 20.0 ],
					"id" : "obj-72",
					"numoutlets" : 1,
					"fontname" : "Arial",
					"outlettype" : [ "int" ]
				}

			}
, 			{
				"box" : 				{
					"maxclass" : "newobj",
					"text" : "drunk 255 15",
					"fontsize" : 11.595187,
					"numinlets" : 3,
					"patching_rect" : [ 835.0, 554.0, 78.0, 20.0 ],
					"id" : "obj-73",
					"numoutlets" : 1,
					"fontname" : "Arial",
					"outlettype" : [ "int" ]
				}

			}
, 			{
				"box" : 				{
					"maxclass" : "newobj",
					"text" : "drunk 255 15",
					"fontsize" : 11.595187,
					"numinlets" : 3,
					"patching_rect" : [ 759.0, 554.0, 78.0, 20.0 ],
					"id" : "obj-74",
					"numoutlets" : 1,
					"fontname" : "Arial",
					"outlettype" : [ "int" ]
				}

			}
, 			{
				"box" : 				{
					"maxclass" : "newobj",
					"text" : "prepend framepoly",
					"fontsize" : 11.595187,
					"numinlets" : 1,
					"patching_rect" : [ 439.0, 761.0, 108.0, 20.0 ],
					"id" : "obj-75",
					"numoutlets" : 1,
					"fontname" : "Arial",
					"outlettype" : [ "" ]
				}

			}
, 			{
				"box" : 				{
					"maxclass" : "newobj",
					"text" : "pack 0 0 0 0 0 0 0 0",
					"fontsize" : 11.595187,
					"numinlets" : 8,
					"patching_rect" : [ 439.0, 731.0, 112.0, 20.0 ],
					"id" : "obj-76",
					"numoutlets" : 1,
					"fontname" : "Arial",
					"outlettype" : [ "" ]
				}

			}
, 			{
				"box" : 				{
					"maxclass" : "newobj",
					"text" : "drunk 10 2",
					"fontsize" : 11.595187,
					"numinlets" : 3,
					"patching_rect" : [ 440.0, 557.0, 65.0, 20.0 ],
					"id" : "obj-82",
					"numoutlets" : 1,
					"fontname" : "Arial",
					"outlettype" : [ "int" ]
				}

			}
, 			{
				"box" : 				{
					"maxclass" : "toggle",
					"numinlets" : 1,
					"patching_rect" : [ 464.0, 491.0, 20.0, 20.0 ],
					"id" : "obj-83",
					"numoutlets" : 1,
					"outlettype" : [ "int" ]
				}

			}
, 			{
				"box" : 				{
					"maxclass" : "newobj",
					"text" : "metro 50",
					"fontsize" : 11.595187,
					"numinlets" : 2,
					"patching_rect" : [ 464.0, 518.0, 63.0, 20.0 ],
					"id" : "obj-84",
					"numoutlets" : 1,
					"fontname" : "Arial",
					"outlettype" : [ "bang" ]
				}

			}
, 			{
				"box" : 				{
					"maxclass" : "message",
					"text" : "clear",
					"fontsize" : 11.595187,
					"numinlets" : 2,
					"patching_rect" : [ 228.0, 397.0, 38.0, 18.0 ],
					"id" : "obj-57",
					"numoutlets" : 1,
					"fontname" : "Arial",
					"outlettype" : [ "" ]
				}

			}
, 			{
				"box" : 				{
					"maxclass" : "lcd",
					"numinlets" : 1,
					"patching_rect" : [ 80.0, 567.0, 320.0, 240.0 ],
					"id" : "obj-37",
					"numoutlets" : 4,
					"outlettype" : [ "list", "list", "int", "" ]
				}

			}
 ],
		"lines" : [ 			{
				"patchline" : 				{
					"source" : [ "obj-17", 0 ],
					"destination" : [ "obj-22", 0 ],
					"hidden" : 0,
					"midpoints" : [  ]
				}

			}
, 			{
				"patchline" : 				{
					"source" : [ "obj-15", 0 ],
					"destination" : [ "obj-22", 1 ],
					"hidden" : 0,
					"midpoints" : [  ]
				}

			}
, 			{
				"patchline" : 				{
					"source" : [ "obj-3", 0 ],
					"destination" : [ "obj-22", 7 ],
					"hidden" : 0,
					"midpoints" : [  ]
				}

			}
, 			{
				"patchline" : 				{
					"source" : [ "obj-5", 0 ],
					"destination" : [ "obj-22", 6 ],
					"hidden" : 0,
					"midpoints" : [  ]
				}

			}
, 			{
				"patchline" : 				{
					"source" : [ "obj-7", 0 ],
					"destination" : [ "obj-22", 5 ],
					"hidden" : 0,
					"midpoints" : [  ]
				}

			}
, 			{
				"patchline" : 				{
					"source" : [ "obj-9", 0 ],
					"destination" : [ "obj-22", 4 ],
					"hidden" : 0,
					"midpoints" : [  ]
				}

			}
, 			{
				"patchline" : 				{
					"source" : [ "obj-11", 0 ],
					"destination" : [ "obj-22", 3 ],
					"hidden" : 0,
					"midpoints" : [  ]
				}

			}
, 			{
				"patchline" : 				{
					"source" : [ "obj-13", 0 ],
					"destination" : [ "obj-22", 2 ],
					"hidden" : 0,
					"midpoints" : [  ]
				}

			}
, 			{
				"patchline" : 				{
					"source" : [ "obj-22", 0 ],
					"destination" : [ "obj-21", 0 ],
					"hidden" : 0,
					"midpoints" : [  ]
				}

			}
, 			{
				"patchline" : 				{
					"source" : [ "obj-21", 0 ],
					"destination" : [ "obj-37", 0 ],
					"hidden" : 0,
					"midpoints" : [ 357.5, 552.0, 89.5, 552.0 ]
				}

			}
, 			{
				"patchline" : 				{
					"source" : [ "obj-4", 0 ],
					"destination" : [ "obj-3", 0 ],
					"hidden" : 0,
					"midpoints" : [  ]
				}

			}
, 			{
				"patchline" : 				{
					"source" : [ "obj-25", 0 ],
					"destination" : [ "obj-4", 0 ],
					"hidden" : 0,
					"midpoints" : [ 382.5, 168.0, 588.0, 168.0, 588.0, 203.0, 623.0, 203.0, 623.0, 233.0, 653.0, 233.0, 653.0, 268.0, 624.5, 268.0 ]
				}

			}
, 			{
				"patchline" : 				{
					"source" : [ "obj-6", 0 ],
					"destination" : [ "obj-5", 0 ],
					"hidden" : 0,
					"midpoints" : [  ]
				}

			}
, 			{
				"patchline" : 				{
					"source" : [ "obj-25", 0 ],
					"destination" : [ "obj-6", 0 ],
					"hidden" : 0,
					"midpoints" : [ 382.5, 168.0, 423.0, 168.0, 423.0, 203.0, 458.0, 203.0, 458.0, 233.0, 488.0, 233.0, 488.0, 243.0, 543.0, 243.0, 543.0, 238.0, 591.5, 238.0 ]
				}

			}
, 			{
				"patchline" : 				{
					"source" : [ "obj-8", 0 ],
					"destination" : [ "obj-7", 0 ],
					"hidden" : 0,
					"midpoints" : [  ]
				}

			}
, 			{
				"patchline" : 				{
					"source" : [ "obj-25", 0 ],
					"destination" : [ "obj-8", 0 ],
					"hidden" : 0,
					"midpoints" : [ 382.5, 168.0, 423.0, 168.0, 423.0, 203.0, 458.0, 203.0, 458.0, 208.0, 557.5, 208.0 ]
				}

			}
, 			{
				"patchline" : 				{
					"source" : [ "obj-10", 0 ],
					"destination" : [ "obj-9", 0 ],
					"hidden" : 0,
					"midpoints" : [  ]
				}

			}
, 			{
				"patchline" : 				{
					"source" : [ "obj-25", 0 ],
					"destination" : [ "obj-10", 0 ],
					"hidden" : 0,
					"midpoints" : [ 382.5, 168.0, 523.5, 168.0 ]
				}

			}
, 			{
				"patchline" : 				{
					"source" : [ "obj-12", 0 ],
					"destination" : [ "obj-11", 0 ],
					"hidden" : 0,
					"midpoints" : [  ]
				}

			}
, 			{
				"patchline" : 				{
					"source" : [ "obj-25", 0 ],
					"destination" : [ "obj-12", 0 ],
					"hidden" : 0,
					"midpoints" : [ 382.5, 168.0, 423.0, 168.0, 423.0, 203.0, 458.0, 203.0, 458.0, 233.0, 488.0, 233.0, 488.0, 268.0, 458.5, 268.0 ]
				}

			}
, 			{
				"patchline" : 				{
					"source" : [ "obj-14", 0 ],
					"destination" : [ "obj-13", 0 ],
					"hidden" : 0,
					"midpoints" : [  ]
				}

			}
, 			{
				"patchline" : 				{
					"source" : [ "obj-25", 0 ],
					"destination" : [ "obj-14", 0 ],
					"hidden" : 0,
					"midpoints" : [ 382.5, 168.0, 423.0, 168.0, 423.0, 203.0, 458.0, 203.0, 458.0, 233.0, 453.0, 233.0, 453.0, 238.0, 425.5, 238.0 ]
				}

			}
, 			{
				"patchline" : 				{
					"source" : [ "obj-25", 0 ],
					"destination" : [ "obj-16", 0 ],
					"hidden" : 0,
					"midpoints" : [ 382.5, 168.0, 423.0, 168.0, 423.0, 203.0, 392.5, 203.0 ]
				}

			}
, 			{
				"patchline" : 				{
					"source" : [ "obj-16", 0 ],
					"destination" : [ "obj-15", 0 ],
					"hidden" : 0,
					"midpoints" : [  ]
				}

			}
, 			{
				"patchline" : 				{
					"source" : [ "obj-25", 0 ],
					"destination" : [ "obj-23", 0 ],
					"hidden" : 0,
					"midpoints" : [ 382.5, 168.0, 358.5, 168.0 ]
				}

			}
, 			{
				"patchline" : 				{
					"source" : [ "obj-23", 0 ],
					"destination" : [ "obj-17", 0 ],
					"hidden" : 0,
					"midpoints" : [  ]
				}

			}
, 			{
				"patchline" : 				{
					"source" : [ "obj-84", 0 ],
					"destination" : [ "obj-72", 0 ],
					"hidden" : 0,
					"midpoints" : [ 473.5, 543.0, 919.5, 543.0 ]
				}

			}
, 			{
				"patchline" : 				{
					"source" : [ "obj-72", 0 ],
					"destination" : [ "obj-104", 2 ],
					"hidden" : 0,
					"midpoints" : [  ]
				}

			}
, 			{
				"patchline" : 				{
					"source" : [ "obj-84", 0 ],
					"destination" : [ "obj-73", 0 ],
					"hidden" : 0,
					"midpoints" : [ 473.5, 543.0, 844.5, 543.0 ]
				}

			}
, 			{
				"patchline" : 				{
					"source" : [ "obj-73", 0 ],
					"destination" : [ "obj-104", 1 ],
					"hidden" : 0,
					"midpoints" : [  ]
				}

			}
, 			{
				"patchline" : 				{
					"source" : [ "obj-84", 0 ],
					"destination" : [ "obj-74", 0 ],
					"hidden" : 0,
					"midpoints" : [ 473.5, 543.0, 768.5, 543.0 ]
				}

			}
, 			{
				"patchline" : 				{
					"source" : [ "obj-74", 0 ],
					"destination" : [ "obj-104", 0 ],
					"hidden" : 0,
					"midpoints" : [  ]
				}

			}
, 			{
				"patchline" : 				{
					"source" : [ "obj-24", 0 ],
					"destination" : [ "obj-25", 0 ],
					"hidden" : 0,
					"midpoints" : [  ]
				}

			}
, 			{
				"patchline" : 				{
					"source" : [ "obj-57", 0 ],
					"destination" : [ "obj-37", 0 ],
					"hidden" : 0,
					"midpoints" : [  ]
				}

			}
, 			{
				"patchline" : 				{
					"source" : [ "obj-83", 0 ],
					"destination" : [ "obj-84", 0 ],
					"hidden" : 0,
					"midpoints" : [  ]
				}

			}
, 			{
				"patchline" : 				{
					"source" : [ "obj-104", 0 ],
					"destination" : [ "obj-105", 0 ],
					"hidden" : 0,
					"midpoints" : [  ]
				}

			}
, 			{
				"patchline" : 				{
					"source" : [ "obj-89", 0 ],
					"destination" : [ "obj-76", 0 ],
					"hidden" : 0,
					"midpoints" : [  ]
				}

			}
, 			{
				"patchline" : 				{
					"source" : [ "obj-90", 0 ],
					"destination" : [ "obj-76", 1 ],
					"hidden" : 0,
					"midpoints" : [  ]
				}

			}
, 			{
				"patchline" : 				{
					"source" : [ "obj-100", 0 ],
					"destination" : [ "obj-76", 7 ],
					"hidden" : 0,
					"midpoints" : [  ]
				}

			}
, 			{
				"patchline" : 				{
					"source" : [ "obj-102", 0 ],
					"destination" : [ "obj-76", 6 ],
					"hidden" : 0,
					"midpoints" : [  ]
				}

			}
, 			{
				"patchline" : 				{
					"source" : [ "obj-96", 0 ],
					"destination" : [ "obj-76", 5 ],
					"hidden" : 0,
					"midpoints" : [  ]
				}

			}
, 			{
				"patchline" : 				{
					"source" : [ "obj-98", 0 ],
					"destination" : [ "obj-76", 4 ],
					"hidden" : 0,
					"midpoints" : [  ]
				}

			}
, 			{
				"patchline" : 				{
					"source" : [ "obj-92", 0 ],
					"destination" : [ "obj-76", 3 ],
					"hidden" : 0,
					"midpoints" : [  ]
				}

			}
, 			{
				"patchline" : 				{
					"source" : [ "obj-94", 0 ],
					"destination" : [ "obj-76", 2 ],
					"hidden" : 0,
					"midpoints" : [  ]
				}

			}
, 			{
				"patchline" : 				{
					"source" : [ "obj-76", 0 ],
					"destination" : [ "obj-75", 0 ],
					"hidden" : 0,
					"midpoints" : [  ]
				}

			}
, 			{
				"patchline" : 				{
					"source" : [ "obj-105", 0 ],
					"destination" : [ "obj-37", 0 ],
					"hidden" : 0,
					"midpoints" : [ 768.5, 640.0, 777.0, 640.0, 777.0, 800.0, 417.0, 800.0, 417.0, 555.0, 89.5, 555.0 ]
				}

			}
, 			{
				"patchline" : 				{
					"source" : [ "obj-75", 0 ],
					"destination" : [ "obj-37", 0 ],
					"hidden" : 0,
					"midpoints" : [ 448.5, 789.0, 424.0, 789.0, 424.0, 549.0, 89.5, 549.0 ]
				}

			}
, 			{
				"patchline" : 				{
					"source" : [ "obj-84", 0 ],
					"destination" : [ "obj-82", 0 ],
					"hidden" : 0,
					"midpoints" : [ 473.5, 543.0, 449.5, 543.0 ]
				}

			}
, 			{
				"patchline" : 				{
					"source" : [ "obj-82", 0 ],
					"destination" : [ "obj-89", 0 ],
					"hidden" : 0,
					"midpoints" : [  ]
				}

			}
, 			{
				"patchline" : 				{
					"source" : [ "obj-84", 0 ],
					"destination" : [ "obj-91", 0 ],
					"hidden" : 0,
					"midpoints" : [ 473.5, 543.0, 514.0, 543.0, 514.0, 578.0, 483.5, 578.0 ]
				}

			}
, 			{
				"patchline" : 				{
					"source" : [ "obj-91", 0 ],
					"destination" : [ "obj-90", 0 ],
					"hidden" : 0,
					"midpoints" : [  ]
				}

			}
, 			{
				"patchline" : 				{
					"source" : [ "obj-95", 0 ],
					"destination" : [ "obj-94", 0 ],
					"hidden" : 0,
					"midpoints" : [  ]
				}

			}
, 			{
				"patchline" : 				{
					"source" : [ "obj-84", 0 ],
					"destination" : [ "obj-95", 0 ],
					"hidden" : 0,
					"midpoints" : [ 473.5, 543.0, 514.0, 543.0, 514.0, 578.0, 549.0, 578.0, 549.0, 608.0, 544.0, 608.0, 544.0, 613.0, 516.5, 613.0 ]
				}

			}
, 			{
				"patchline" : 				{
					"source" : [ "obj-93", 0 ],
					"destination" : [ "obj-92", 0 ],
					"hidden" : 0,
					"midpoints" : [  ]
				}

			}
, 			{
				"patchline" : 				{
					"source" : [ "obj-84", 0 ],
					"destination" : [ "obj-93", 0 ],
					"hidden" : 0,
					"midpoints" : [ 473.5, 543.0, 514.0, 543.0, 514.0, 578.0, 549.0, 578.0, 549.0, 608.0, 579.0, 608.0, 579.0, 643.0, 549.5, 643.0 ]
				}

			}
, 			{
				"patchline" : 				{
					"source" : [ "obj-99", 0 ],
					"destination" : [ "obj-98", 0 ],
					"hidden" : 0,
					"midpoints" : [  ]
				}

			}
, 			{
				"patchline" : 				{
					"source" : [ "obj-84", 0 ],
					"destination" : [ "obj-99", 0 ],
					"hidden" : 0,
					"midpoints" : [ 473.5, 543.0, 614.5, 543.0 ]
				}

			}
, 			{
				"patchline" : 				{
					"source" : [ "obj-97", 0 ],
					"destination" : [ "obj-96", 0 ],
					"hidden" : 0,
					"midpoints" : [  ]
				}

			}
, 			{
				"patchline" : 				{
					"source" : [ "obj-84", 0 ],
					"destination" : [ "obj-97", 0 ],
					"hidden" : 0,
					"midpoints" : [ 473.5, 543.0, 514.0, 543.0, 514.0, 578.0, 549.0, 578.0, 549.0, 583.0, 648.5, 583.0 ]
				}

			}
, 			{
				"patchline" : 				{
					"source" : [ "obj-103", 0 ],
					"destination" : [ "obj-102", 0 ],
					"hidden" : 0,
					"midpoints" : [  ]
				}

			}
, 			{
				"patchline" : 				{
					"source" : [ "obj-84", 0 ],
					"destination" : [ "obj-103", 0 ],
					"hidden" : 0,
					"midpoints" : [ 473.5, 543.0, 514.0, 543.0, 514.0, 578.0, 549.0, 578.0, 549.0, 608.0, 579.0, 608.0, 579.0, 618.0, 634.0, 618.0, 634.0, 613.0, 682.5, 613.0 ]
				}

			}
, 			{
				"patchline" : 				{
					"source" : [ "obj-101", 0 ],
					"destination" : [ "obj-100", 0 ],
					"hidden" : 0,
					"midpoints" : [  ]
				}

			}
, 			{
				"patchline" : 				{
					"source" : [ "obj-84", 0 ],
					"destination" : [ "obj-101", 0 ],
					"hidden" : 0,
					"midpoints" : [ 473.5, 543.0, 679.0, 543.0, 679.0, 578.0, 714.0, 578.0, 714.0, 608.0, 744.0, 608.0, 744.0, 643.0, 715.5, 643.0 ]
				}

			}
 ]
	}

}
